<svg width="1200" height="320" viewBox="0 0 1200 320" xmlns="http://www.w3.org/2000/svg" role="img" aria-labelledby="title desc">
  <title id="title">UCF Prints horizontal logo on dark background</title>
  <desc id="desc">Bold UP monogram in gold and black with UCF Prints wordmark.</desc>
  <rect width="1200" height="320" fill="#0E0E10"/>
  <g transform="translate(56,40)">
    <rect x="0" y="0" width="240" height="240" rx="34" fill="#FFC904"/>
    <rect x="42" y="44" width="38" height="150" rx="8" fill="#111111"/>
    <rect x="42" y="156" width="104" height="38" rx="8" fill="#111111"/>
    <rect x="160" y="44" width="38" height="150" rx="8" fill="#111111"/>
    <rect x="122" y="44" width="76" height="38" rx="8" fill="#111111"/>
    <rect x="122" y="100" width="76" height="38" rx="8" fill="#111111"/>
    <rect x="122" y="44" width="38" height="112" rx="8" fill="#FFC904"/>
    <rect x="56" y="24" width="128" height="12" rx="6" fill="#111111"/>
    <rect x="56" y="208" width="128" height="12" rx="6" fill="#111111"/>
  </g>
  <g fill="#F5F5F5" font-family="Inter, Montserrat, Arial, sans-serif">
    <text x="344" y="158" font-size="108" font-weight="800" letter-spacing="0.5">UCF</text>
    <text x="344" y="246" font-size="92" font-weight="700" letter-spacing="0.2">Prints</text>
  </g>
  <rect x="344" y="268" width="344" height="10" rx="5" fill="#FFC904"/>
</svg>
